# Polyèdre de Mizhaev

24 8 36
-72 84 18
-36 112 102
72 -84 18 
36 -112 102
0 300 234
-84 48 -18
9 147 107
0 -300 234
84 -48 -18
-112 -36 -102
48 84 18
-147 9 -207
-9 -147 207
84 72 -18
112 38 -102
-48 -84 18
147 -9 -207
-18 126 144
-126 -18 -144
-300 0 -234
-84 -72 -18
18 -126 144
126 18 -144
300 0 -234
9 6 10 16 22 18 7 5 1 2
9 9 15 11 18 22 13 8 3 4
9 7 5 8 3 17 23 9 15 14
9 13 8 5 1 12 19 6 10 21
9 1 2 11 18 7 14 24 20 12
9 3 4 16 22 13 21 20 24 17
9 14 24 17 23 19 6 2 11 15
9 10 21 20 12 19 23 9 4 16
